<svg xmlns="http://www.w3.org/2000/svg" viewBox="0 0 200 200" width="100%" height="100%">
  <defs>
    <linearGradient id="grad" x1="0%" y1="0%" x2="100%" y2="100%">
      <stop offset="0%" stop-color="#f1f5f9" />
      <stop offset="100%" stop-color="#e2e8f0" />
    </linearGradient>
  </defs>
  <rect width="200" height="200" rx="16" fill="url(#grad)" />
  <g transform="translate(68, 68)" stroke="#94a3b8" stroke-width="2.5" fill="none" stroke-linecap="round" stroke-linejoin="round">
    <path d="M21 16V8a2 2 0 0 0-1-1.73l-7-4a2 2 0 0 0-2 0l-7 4A2 2 0 0 0 3 8v8a2 2 0 0 0 1 1.73l7 4a2 2 0 0 0 2 0l7-4A2 2 0 0 0 21 16z" transform="scale(2.5) translate(-1, -1)"/>
    <polyline points="3.27 6.96 12 12.01 20.73 6.96" transform="scale(2.5) translate(-1, -1)"/>
    <line x1="12" y1="22.08" x2="12" y2="12" transform="scale(2.5) translate(-1, -1)"/>
  </g>
</svg>
